<?xml version="1.0" standalone="no"?>
<!DOCTYPE svg PUBLIC "-//W3C//DTD SVG 20010904//EN"
 "http://www.w3.org/TR/2001/REC-SVG-20010904/DTD/svg10.dtd">
<svg version="1.0" xmlns="http://www.w3.org/2000/svg"
 width="16.000000pt" height="16.000000pt" viewBox="0 0 16.000000 16.000000"
 preserveAspectRatio="xMidYMid meet">
<metadata>
Created by potrace 1.11, written by Peter Selinger 2001-2013
</metadata>
<g transform="translate(0.000000,16.000000) scale(0.012500,-0.012500)"
fill="#000000" stroke="none">
<path d="M0 640 l0 -480 640 0 640 0 0 480 0 480 -640 0 -640 0 0 -480z m480
280 l0 -40 40 0 40 0 0 -40 0 -40 -40 0 -40 0 0 40 0 40 -120 0 -120 0 0 -80
0 -80 120 0 120 0 0 -40 0 -40 40 0 40 0 0 -120 0 -120 -40 0 -40 0 0 -40 0
-40 -120 0 -120 0 0 40 0 40 -40 0 -40 0 0 40 0 40 40 0 40 0 0 -40 0 -40 120
0 120 0 0 120 0 120 -120 0 -120 0 0 40 0 40 -40 0 -40 0 0 80 0 80 40 0 40 0
0 40 0 40 120 0 120 0 0 -40z m320 -40 l0 -80 40 0 40 0 0 -40 0 -40 40 0 40
0 0 -40 0 -40 40 0 40 0 0 160 0 160 40 0 40 0 0 -320 0 -320 -40 0 -40 0 0
120 0 120 -40 0 -40 0 0 40 0 40 -40 0 -40 0 0 40 0 40 -40 0 -40 0 0 -200 0
-200 -40 0 -40 0 0 320 0 320 40 0 40 0 0 -80z"/>
</g>
</svg>
