<?xml version="1.0" encoding="UTF-8"?>
<svg width="212px" height="34px" viewBox="0 0 212 34" version="1.1" xmlns="http://www.w3.org/2000/svg" xmlns:xlink="http://www.w3.org/1999/xlink">
    <!-- Generator: Sketch 46.2 (44496) - http://www.bohemiancoding.com/sketch -->
    <title>social-icons</title>
    <desc>Created with Sketch.</desc>
    <defs></defs>
    <g id="Page-1" stroke="none" stroke-width="1" fill="none" fill-rule="evenodd">
        <g id="social-icons">
            <path d="M16.0000318,1 C11.6546609,1 11.1097906,1.01841851 9.40322046,1.09628434 C7.70020701,1.17395964 6.53710992,1.44445768 5.51939203,1.84001104 C4.46725058,2.24883842 3.57496909,2.79593165 2.68541861,3.68541861 C1.79593165,4.57496909 1.24883842,5.46725058 0.840011035,6.51939203 C0.444457676,7.53710992 0.173959642,8.70020701 0.0962843437,10.4032205 C0.018418509,12.1097906 0,12.6546609 0,17.0000318 C0,21.3453391 0.018418509,21.8902094 0.0962843437,23.5967795 C0.173959642,25.299793 0.444457676,26.4628901 0.840011035,27.480608 C1.24883842,28.5327494 1.79593165,29.4250309 2.68541861,30.3145814 C3.57496909,31.2040683 4.46725058,31.7511616 5.51939203,32.1600525 C6.53710992,32.5555423 7.70020701,32.8260404 9.40322046,32.9037157 C11.1097906,32.9815815 11.6546609,33 16.0000318,33 C20.3453391,33 20.8902094,32.9815815 22.5967795,32.9037157 C24.299793,32.8260404 25.4628901,32.5555423 26.480608,32.1600525 C27.5327494,31.7511616 28.4250309,31.2040683 29.3145814,30.3145814 C30.2040683,29.4250309 30.7511616,28.5327494 31.1600525,27.480608 C31.5555423,26.4628901 31.8260404,25.299793 31.9037157,23.5967795 C31.9815815,21.8902094 32,21.3453391 32,17.0000318 C32,12.6546609 31.9815815,12.1097906 31.9037157,10.4032205 C31.8260404,8.70020701 31.5555423,7.53710992 31.1600525,6.51939203 C30.7511616,5.46725058 30.2040683,4.57496909 29.3145814,3.68541861 C28.4250309,2.79593165 27.5327494,2.24883842 26.480608,1.84001104 C25.4628901,1.44445768 24.299793,1.17395964 22.5967795,1.09628434 C20.8902094,1.01841851 20.3453391,1 16.0000318,1 Z M16.0000318,3.88287773 C20.2721732,3.88287773 20.7782376,3.89920034 22.465373,3.97617701 C24.0253572,4.04731056 24.8725451,4.30796422 25.436342,4.52708096 C26.1831808,4.81733126 26.7161743,5.16404382 27.2760335,5.72396649 C27.8359562,6.28382565 28.1826687,6.81681919 28.472919,7.56365798 C28.6920358,8.12745489 28.9526894,8.97464279 29.023823,10.534627 C29.1007997,12.2217624 29.1171223,12.7278268 29.1171223,17.0000318 C29.1171223,21.2721732 29.1007997,21.7782376 29.023823,23.465373 C28.9526894,25.0253572 28.6920358,25.8725451 28.472919,26.436342 C28.1826687,27.1831808 27.8359562,27.7161743 27.2760335,28.2760335 C26.7161743,28.8359562 26.1831808,29.1826687 25.436342,29.472919 C24.8725451,29.6920358 24.0253572,29.9526894 22.465373,30.023823 C20.7784916,30.1007997 20.2724907,30.1171223 16.0000318,30.1171223 C11.7275093,30.1171223 11.2215719,30.1007997 9.534627,30.023823 C7.97464279,29.9526894 7.12745489,29.6920358 6.56365798,29.472919 C5.81681919,29.1826687 5.28382565,28.8359562 4.72396649,28.2760335 C4.16410733,27.7161743 3.81733126,27.1831808 3.52708096,26.436342 C3.30796422,25.8725451 3.04731056,25.0253572 2.97617701,23.465373 C2.89920034,21.7782376 2.88287773,21.2721732 2.88287773,17.0000318 C2.88287773,12.7278268 2.89920034,12.2217624 2.97617701,10.534627 C3.04731056,8.97464279 3.30796422,8.12745489 3.52708096,7.56365798 C3.81733126,6.81681919 4.16404382,6.28382565 4.72396649,5.72396649 C5.28382565,5.16404382 5.81681919,4.81733126 6.56365798,4.52708096 C7.12745489,4.30796422 7.97464279,4.04731056 9.534627,3.97617701 C11.2217624,3.89920034 11.7278268,3.88287773 16.0000318,3.88287773 Z M16.0000318,22.3333333 C13.0544676,22.3333333 10.6666667,19.9455324 10.6666667,17.0000318 C10.6666667,14.0544676 13.0544676,11.6666667 16.0000318,11.6666667 C18.9455324,11.6666667 21.3333333,14.0544676 21.3333333,17.0000318 C21.3333333,19.9455324 18.9455324,22.3333333 16.0000318,22.3333333 Z M16.0000318,8.78378893 C11.4622827,8.78378893 7.78378893,12.4622827 7.78378893,17.0000318 C7.78378893,21.5377173 11.4622827,25.2162111 16.0000318,25.2162111 C20.5377173,25.2162111 24.2162111,21.5377173 24.2162111,17.0000318 C24.2162111,12.4622827 20.5377173,8.78378893 16.0000318,8.78378893 Z M26.4608557,8.45917859 C26.4608557,7.39878057 25.6012194,6.53914429 24.5408214,6.53914429 C23.4804869,6.53914429 22.6208506,7.39878057 22.6208506,8.45917859 C22.6208506,9.51957661 23.4804869,10.3791494 24.5408214,10.3791494 C25.6012194,10.3791494 26.4608557,9.51957661 26.4608557,8.45917859 Z" id="ig-icon" fill="#0A0B09"></path>
            <path d="M143.498389,0 C133.836029,0 126,7.80371485 126,17.4307576 C126,25.1317497 131.013813,31.6642712 137.967832,33.9691117 C138.843396,34.1296159 139.162467,33.5913918 139.162467,33.1291397 C139.162467,32.7161088 139.147426,31.61933 139.138832,30.1651618 C134.271126,31.2180695 133.244084,27.8282205 133.244084,27.8282205 C132.448019,25.8144276 131.300654,25.2783436 131.300654,25.2783436 C129.711747,24.1976152 131.420977,24.2190158 131.420977,24.2190158 C133.177476,24.342069 134.101384,26.0155929 134.101384,26.0155929 C135.662359,28.6788928 138.197735,27.9095426 139.194696,27.4633409 C139.353694,26.3376714 139.805979,25.5693912 140.305534,25.1338898 C136.419749,24.6941082 132.334142,23.198209 132.334142,16.5190936 C132.334142,14.6165837 133.01633,13.0596928 134.135762,11.8420009 C133.955278,11.4011493 133.354738,9.62811274 134.307652,7.22910977 C134.307652,7.22910977 135.776236,6.76043746 139.119494,9.01605668 C140.515025,8.62870651 142.012615,8.43610145 143.500537,8.42861125 C144.987385,8.43610145 146.483901,8.62870651 147.88158,9.01605668 C151.222689,6.76043746 152.689125,7.22910977 152.689125,7.22910977 C153.644188,9.62811274 153.043648,11.4011493 152.864238,11.8420009 C153.985819,13.0596928 154.662635,14.6165837 154.662635,16.5190936 C154.662635,23.2153294 150.570582,24.6887581 146.67298,25.1199794 C147.300378,25.6582035 147.860094,26.7218115 147.860094,28.3482542 C147.860094,30.6777053 147.838608,32.5577447 147.838608,33.1291397 C147.838608,33.5956719 148.154455,34.1381761 149.041837,33.9680417 C155.990485,31.657851 161,25.1296097 161,17.4307576 C161,7.80371485 153.163971,0 143.498389,0" id="github-icon" fill="#161514"></path>
            <path d="M72.32128,32 C85.90624,32 93.33664,20.8419639 93.33664,11.1657652 C93.33664,10.8488405 93.33664,10.5333433 93.31504,10.2192737 C94.7605572,9.18271676 96.0083519,7.89926928 97,6.42902472 C95.6519858,7.02119119 94.2219942,7.40953378 92.75776,7.58108909 C94.2996313,6.66597889 95.4536179,5.22666922 96.00496,3.53101892 C94.5551068,4.38393959 92.9689304,4.98503554 91.31488,5.3083673 C89.0253992,2.89487707 85.3874359,2.30416685 82.440951,3.86747301 C79.494466,5.43077917 77.972236,8.75931507 78.72784,11.9866289 C72.7891299,11.6914742 67.2560451,8.91063601 63.5056,4.33617915 C61.5452168,7.68194073 62.5465426,11.9621593 65.79232,14.1108815 C64.6169073,14.0763446 63.4671223,13.7619975 62.44,13.1943693 C62.44,13.2243487 62.44,13.2557556 62.44,13.2871626 C62.4409621,16.772754 64.9193221,19.7748913 68.3656,20.4650804 C67.2782122,20.7590781 66.137316,20.8020546 65.03056,20.5907082 C65.998165,23.5735454 68.7710674,25.6169407 71.93104,25.6757805 C69.3156185,27.7135667 66.0847257,28.8197994 62.75824,28.8164764 C62.1705811,28.8153579 61.5834939,28.7800836 61,28.7108348 C64.3777158,30.8597512 68.3078753,31.9995959 72.32128,31.9942896" id="twitter-icon" fill="#000000" fill-rule="nonzero"></path>
            <g id="Group-2" transform="translate(189.000000, 1.000000)" fill="#000000">
                <g id="Group">
                    <path d="M11,22 C4.92486775,22 0,17.0751322 0,11 C0,4.92486775 4.92486775,0 11,0 C17.0751322,0 22,4.92486775 22,11 C22,17.0751322 17.0751322,22 11,22 Z M11,20.1666667 C16.0626102,20.1666667 20.1666667,16.0626102 20.1666667,11 C20.1666667,5.93738979 16.0626102,1.83333333 11,1.83333333 C5.93738979,1.83333333 1.83333333,5.93738979 1.83333333,11 C1.83333333,16.0626102 5.93738979,20.1666667 11,20.1666667 Z" id="Combined-Shape"></path>
                </g>
                <path d="M12,15 L12,10.5 L12,9 L8,9 L8,11 L10,11 L10,15 L8,15 L8,17 L14,17 L14,15 L12,15 Z" id="Combined-Shape"></path>
                <circle id="Oval-2" cx="11" cy="6" r="1.5"></circle>
            </g>
        </g>
    </g>
</svg>