<?xml version="1.0" encoding="UTF-8"?>
<svg viewBox="0 0 161 34" version="1.1" xmlns="http://www.w3.org/2000/svg" xmlns:xlink="http://www.w3.org/1999/xlink" style="display: none;">
  <defs>
    <symbol id="ig-icon" viewBox="0 0 32 34">
            <path d="M15.9949841,1.01009524 C11.6509841,1.01009524 11.1062857,1.02850794 9.40025397,1.10634921 C7.69777778,1.184 6.53504762,1.4544127 5.51765079,1.84984127 C4.46584127,2.25853968 3.57384127,2.80546032 2.68457143,3.69466667 C1.79536508,4.58393651 1.24844444,5.47593651 0.839746032,6.52774603 C0.44431746,7.54514286 0.173904762,8.70787302 0.0962539683,10.4103492 C0.0184126984,12.116381 0,12.6610794 0,17.0050794 C0,21.3490159 0.0184126984,21.8937143 0.0962539683,23.599746 C0.173904762,25.3022222 0.44431746,26.4649524 0.839746032,27.4823492 C1.24844444,28.5341587 1.79536508,29.4261587 2.68457143,30.3154286 C3.57384127,31.2046349 4.46584127,31.7515556 5.51765079,32.1603175 C6.53504762,32.5556825 7.69777778,32.8260952 9.40025397,32.903746 C11.1062857,32.9815873 11.6509841,33 15.9949841,33 C20.3389206,33 20.883619,32.9815873 22.5896508,32.903746 C24.292127,32.8260952 25.4548571,32.5556825 26.472254,32.1603175 C27.5240635,31.7515556 28.4160635,31.2046349 29.3053333,30.3154286 C30.1945397,29.4261587 30.7414603,28.5341587 31.1502222,27.4823492 C31.5455873,26.4649524 31.816,25.3022222 31.8936508,23.599746 C31.9714921,21.8937143 31.9899048,21.3490159 31.9899048,17.0050794 C31.9899048,12.6610794 31.9714921,12.116381 31.8936508,10.4103492 C31.816,8.70787302 31.5455873,7.54514286 31.1502222,6.52774603 C30.7414603,5.47593651 30.1945397,4.58393651 29.3053333,3.69466667 C28.4160635,2.80546032 27.5240635,2.25853968 26.472254,1.84984127 C25.4548571,1.4544127 24.292127,1.184 22.5896508,1.10634921 C20.883619,1.02850794 20.3389206,1.01009524 15.9949841,1.01009524 Z M15.9949841,3.89206349 C20.2657778,3.89206349 20.7716825,3.90838095 22.4582857,3.98533333 C24.0177778,4.05644444 24.8646984,4.31701587 25.4283175,4.53606349 C26.1749206,4.82622222 26.707746,5.1728254 27.2674286,5.73257143 C27.8271746,6.29225397 28.1737778,6.82507937 28.4639365,7.57168254 C28.6829841,8.13530159 28.9435556,8.98222222 29.0146667,10.5417143 C29.091619,12.2283175 29.1079365,12.7342222 29.1079365,17.0050794 C29.1079365,21.275873 29.091619,21.7817778 29.0146667,23.468381 C28.9435556,25.027873 28.6829841,25.8747937 28.4639365,26.4384127 C28.1737778,27.1850159 27.8271746,27.7178413 27.2674286,28.2775238 C26.707746,28.8372698 26.1749206,29.183873 25.4283175,29.4740317 C24.8646984,29.6930794 24.0177778,29.9536508 22.4582857,30.0247619 C20.7719365,30.1017143 20.2660952,30.1180317 15.9949841,30.1180317 C11.7238095,30.1180317 11.2180317,30.1017143 9.53161905,30.0247619 C7.97212698,29.9536508 7.12520635,29.6930794 6.5615873,29.4740317 C5.81498413,29.183873 5.28215873,28.8372698 4.72247619,28.2775238 C4.16279365,27.7178413 3.81612698,27.1850159 3.52596825,26.4384127 C3.30692063,25.8747937 3.04634921,25.027873 2.9752381,23.468381 C2.89828571,21.7817778 2.88196825,21.275873 2.88196825,17.0050794 C2.88196825,12.7342222 2.89828571,12.2283175 2.9752381,10.5417143 C3.04634921,8.98222222 3.30692063,8.13530159 3.52596825,7.57168254 C3.81612698,6.82507937 4.16273016,6.29225397 4.72247619,5.73257143 C5.28215873,5.1728254 5.81498413,4.82622222 6.5615873,4.53606349 C7.12520635,4.31701587 7.97212698,4.05644444 9.53161905,3.98533333 C11.2182222,3.90838095 11.724127,3.89206349 15.9949841,3.89206349 Z M15.9949841,22.3366984 C13.0503492,22.3366984 10.6633016,19.9496508 10.6633016,17.0050794 C10.6633016,14.0604444 13.0503492,11.6733968 15.9949841,11.6733968 C18.9395556,11.6733968 21.3266032,14.0604444 21.3266032,17.0050794 C21.3266032,19.9496508 18.9395556,22.3366984 15.9949841,22.3366984 Z M15.9949841,8.79142857 C11.4586667,8.79142857 7.78133333,12.4687619 7.78133333,17.0050794 C7.78133333,21.5413333 11.4586667,25.2186667 15.9949841,25.2186667 C20.5312381,25.2186667 24.2085714,21.5413333 24.2085714,17.0050794 C24.2085714,12.4687619 20.5312381,8.79142857 15.9949841,8.79142857 Z M26.4525079,8.46692063 C26.4525079,7.40685714 25.5931429,6.54749206 24.5330794,6.54749206 C23.4730794,6.54749206 22.6137143,7.40685714 22.6137143,8.46692063 C22.6137143,9.52698413 23.4730794,10.3862857 24.5330794,10.3862857 C25.5931429,10.3862857 26.4525079,9.52698413 26.4525079,8.46692063 Z"  fill="#ff00ff"></path>
    </symbol>
    <symbol id="twitter-icon" viewBox="61 0 36 34"><path d="M72.32128,32.2521154 C85.90624,32.2521154 93.33664,20.9970754 93.33664,11.2367554 C93.33664,10.9170754 93.33664,10.5988354 93.31504,10.2820354 C94.7605572,9.23646704 96.0083519,7.94186173 97,6.45883541 C95.6519858,7.05614996 94.2219942,7.44786866 92.75776,7.62091541 C94.2996313,6.69784957 95.4536179,5.24602706 96.00496,3.53563541 C94.5551068,4.39597106 92.9689304,5.00229271 91.31488,5.32843541 C89.0253992,2.89396317 85.3874359,2.29811753 82.440951,3.8750145 C79.494466,5.45191148 77.972236,8.80938445 78.72784,12.0647554 C72.7891299,11.7670347 67.2560451,8.96202092 63.5056,4.34779541 C61.5452168,7.72264381 62.5465426,12.0400731 65.79232,14.2074754 C64.6169073,14.1726383 63.4671223,13.8555584 62.44,13.2829954 C62.44,13.3132354 62.44,13.3449154 62.44,13.3765954 C62.4409621,16.8924893 64.9193221,19.920726 68.3656,20.6169154 C67.2782122,20.9134691 66.137316,20.9568192 65.03056,20.7436354 C65.998165,23.7524043 68.7710674,25.8135642 71.93104,25.8729154 C69.3156185,27.9284174 66.0847257,29.0442673 62.75824,29.0409154 C62.1705811,29.0397872 61.5834939,29.0042062 61,28.9343554 C64.3777158,31.1019536 68.3078753,32.2517078 72.32128,32.2463554"  fill="#ff00ff" fill-rule="nonzero"></path>
            
      </symbol>
    <symbol id="github-icon" viewBox="125 0 36 34">
            <path d="M143.288409,0 C133.741997,0 126,7.74093598 126,17.2905316 C126,24.9295713 130.953647,31.4095403 137.824219,33.695839 C138.689276,33.855052 139.004518,33.3211577 139.004518,32.8626243 C139.004518,32.4529162 138.989658,31.3649607 138.981166,29.9224909 C134.171872,30.9669282 133.157155,27.6043497 133.157155,27.6043497 C132.370643,25.6067572 131.237046,25.0749858 131.237046,25.0749858 C129.667206,24.0029516 131.355925,24.02418 131.355925,24.02418 C133.091347,24.1462433 134.004168,25.8063042 134.004168,25.8063042 C135.546411,28.4481786 138.051363,27.6850176 139.03636,27.2424054 C139.19345,26.1257916 139.640308,25.3636921 140.133869,24.9316941 C136.294712,24.4954505 132.258132,23.0115854 132.258132,16.3862018 C132.258132,14.4989971 132.932134,12.954631 134.038134,11.746735 C133.859815,11.30943 133.266481,9.55065706 134.207961,7.17095345 C134.207961,7.17095345 135.658922,6.70605149 138.962061,8.94352483 C140.340845,8.55929079 141.820465,8.3682352 143.290532,8.36080526 C144.759537,8.3682352 146.238095,8.55929079 147.619002,8.94352483 C150.920019,6.70605149 152.368857,7.17095345 152.368857,7.17095345 C153.312459,9.55065706 152.719125,11.30943 152.541868,11.746735 C153.649991,12.954631 154.318685,14.4989971 154.318685,16.3862018 C154.318685,23.0285681 150.275737,24.4901434 146.424905,24.9178957 C147.044774,25.4517899 147.597774,26.5068414 147.597774,28.1201998 C147.597774,30.4309111 147.576546,32.295826 147.576546,32.8626243 C147.576546,33.3254034 147.888603,33.8635433 148.765336,33.6947776 C155.6306,31.4031718 160.580002,24.9274484 160.580002,17.2905316 C160.580002,7.74093598 152.838004,0 143.288409,0"  fill="#ff00ff"></path>
      </symbol>

  </defs>
</svg>